<svg width="68" height="68" viewBox="0 0 68 68" fill="none" xmlns="http://www.w3.org/2000/svg">
<path d="M46.8566 0H20.7889C15.2753 0 9.9876 2.20173 6.08893 6.12084C2.19025 10.0399 0 15.3554 0 20.8979V47.1021C0 52.6446 2.19025 57.96 6.08893 61.8792C9.9876 65.7983 15.2753 68 20.7889 68H36.8426C22.6944 60.0677 6.71321 47.5696 7.24773 41.562C6.37196 31.7475 48.5598 4.65679 56.8645 8.35732C56.8645 8.35732 57.8067 8.64268 58.9784 10.6523C43.6434 17.3491 20.6832 34.088 21.3325 41.3555C20.798 47.3237 36.5829 59.7064 50.6677 67.6448C55.4371 66.7495 59.745 64.2059 62.8456 60.4544C65.9461 56.7028 67.6441 51.9795 67.6455 47.1021V20.8979C67.6455 15.3554 65.4552 10.0399 61.5565 6.12084C57.6578 2.20173 52.3701 0 46.8566 0Z" fill="#303030"/>
</svg>
